<?xml version="1.0" encoding="UTF-8"?>
<svg id="Camada_1" data-name="Camada 1" xmlns="http://www.w3.org/2000/svg" viewBox="0 0 88.7 76">
  <path d="M88.7,29.6c0-4.4-2.6-8.4-6.6-10.2-1-6.2-6.1-11-12.3-11.5-1.7-3.5-5.3-5.8-9.3-5.8h0c-.5,0-1,.1-1.5.1h-.1c-.5.1-1.1.2-1.6.4-2-1.6-4.5-2.6-7.1-2.6-2.1,0-4.2.6-5.9,1.8-1.8-.8-3.8-1.2-5.9-1.2-4.1,0-8,1.7-10.7,4.8-.9-.2-1.7-.3-2.6-.3-3.6,0-6.9,1.8-8.8,4.9h-.9c-.2,0-.4.1-.6.1s-.3.1-.5.1-.4.1-.6.2c-.2,0-.3.1-.5.1-.2.1-.4.1-.5.2-.2.1-.4.1-.5.2s-.3.1-.4.2c-.2.1-.4.2-.6.3h0c-3.5,1.9-5.9,5.6-6.2,9.8v.1c-3.2,3-5,7.3-5,11.7,0,8.9,7.3,16.2,16.2,16.2.9,0,1.9-.1,2.8-.2,1.2.4,2.5.6,3.8.7,2.6,6.4,7.8,9.8,14.9,9.8s15,6.9,15,15v1.5h11.4l-1.3-9.3c7.9.8,15.4-4.3,17.4-12.2.3-1.4.5-2.8.5-4.1,4.7-1.7,8-6.2,8-11.3,0-1.7-.3-3.3-1-4.8.6-1.5,1-3.1,1-4.7ZM84.4,35c.7,1.3,1,2.6,1,4.1,0,3.4-2,6.5-5.1,7.9-1.3-5.9-5.9-10.7-11.8-12.2-.9-.2-1.8.3-2,1.2s.3,1.8,1.2,2c5.3,1.3,9.2,5.8,9.7,11.2.2,1.5,0,3-.3,4.5-1.8,7-8.8,11.2-15.8,9.4l-2.3-.6,1.4,10.2h-4.6c-1-9.4-10.4-16.7-18.2-16.7-5.4,0-9.2-2.2-11.4-6.6,0-.1,0-.2-.1-.3-1.7-3.5-.2-7.8,3.4-9.5.8-.4,1.2-1.4.8-2.2s-1.4-1.2-2.2-.8c-3.8,1.8-5.9,5.6-5.9,9.5-.9-.1-1.8-.3-2.6-.6l-.4-.2-.4.1c-.8.2-1.7.3-2.6.3-7.1,0-13-5.8-13-13,0-2.6.8-5.2,2.3-7.3,1.2,3.8,4.4,6.8,8.3,7.8-.3.5-.5,1-.6,1.5-.4,1.8-.2,3.6.8,5.2.3.5.8.8,1.4.8.3,0,.6-.1.8-.2.8-.5,1-1.5.6-2.2-.5-.8-.6-1.8-.4-2.7s.8-1.7,1.6-2.2c.8-.5,1-1.5.6-2.2-.4-.6-1.1-.9-1.8-.7-4.7-.1-8.6-4-8.6-8.7s3.9-8.7,8.7-8.7h.2l1.3.1.5-1c1.2-2.5,3.7-4,6.4-4,.9,0,1.7.2,2.6.5l1.1.4.7-1c2.1-2.8,5.4-4.4,8.9-4.4,1.8,0,3.7.5,5.3,1.3l1,.5.8-.7c1.3-1.1,2.9-1.7,4.6-1.7,1.4,0,2.8.4,3.9,1.2-2.4,1.9-4,4.8-4,8.1,0,.9.7,1.6,1.6,1.6s1.6-.7,1.6-1.6c0-2.7,1.5-5,3.6-6.2l.5-.2c1-.4,2-.7,3-.7,3,0,5.6,1.9,6.7,4.7l.4,1.1h1.1c5.4,0,9.9,4.3,10.3,9.6l.1,1.1,1,.3c3.2,1.1,5.4,4.1,5.4,7.5,0,1.3-.3,2.7-1,3.8l-.4.8.3.8ZM50,43.3c0-3-1.5-5.8-4-7.5h0c-4.3-2-7.3-6.1-7.9-10.8-.1-.7.4-1.4,1.1-1.5.7-.1,1.4.4,1.5,1.1.6,4.3,3.5,7.9,7.6,9.3,2.9,1,6,.8,8.8-.5,2.8-1.3,4.8-3.7,5.8-6.6.2-.7,1-1,1.7-.8s1,1,.8,1.7c-1.2,3.6-3.8,6.4-7.2,8-1.9.9-4,1.4-6.1,1.4-.4,0-.8,0-1.3-.1,1.1,1.8,1.8,3.9,1.8,6.2,0,.7-.6,1.3-1.3,1.3s-1.3-.5-1.3-1.2ZM74.7,28.3c0,.7-.6,1.3-1.3,1.3s-1.3-.6-1.3-1.3c0-5.9-4.8-10.7-10.7-10.7-.7,0-1.3-.6-1.3-1.3s.6-1.3,1.3-1.3c7.3,0,13.3,6,13.3,13.3ZM40.3,14.9c0-.7.6-1.3,1.3-1.3,5.7,0,10.4,4.6,10.4,10.4,0,.7-.6,1.3-1.3,1.3s-1.3-.6-1.3-1.3c0-4.3-3.5-7.8-7.8-7.8-.7,0-1.3-.6-1.3-1.3ZM37.2,44.6c-.2.4-.7.6-1.1.6-.2,0-.5-.1-.7-.2-.6-.4-.8-1.2-.4-1.8,2.2-3.5,1.1-8.1-2.4-10.3-.6-.4-.8-1.2-.4-1.8.4-.6,1.2-.8,1.8-.4,4.7,3,6.1,9.2,3.2,13.9ZM36,21.6c-2,0-3.8-.9-5.2-2.2-2.3,3.3-6.1,5.1-9.9,5.1-2,0-4.1-.5-6-1.6-.6-.4-.8-1.2-.5-1.8.4-.6,1.2-.8,1.8-.5,4.5,2.6,10.3,1.1,13-3.5-.5-1.1-.8-2.3-.8-3.5,0-.7.6-1.3,1.3-1.3s1.3.6,1.3,1.3c-.1,2.8,2.2,5.2,5,5.3.7,0,1.3.6,1.3,1.3,0,.9-.6,1.4-1.3,1.4h0ZM66.5,47c.6.4.7,1.2.3,1.8-2.5,3.6-6.5,5.6-10.6,5.6-2.5,0-5-.7-7.2-2.2-.6-.4-.7-1.2-.3-1.8s1.2-.7,1.8-.3c2.3,1.5,5,2.1,7.7,1.6,2.7-.5,5-2,6.6-4.3.3-.6,1.1-.8,1.7-.4Z"/>
</svg>